<mxfile host="app.diagrams.net" modified="2022-06-08T05:45:54.170Z" agent="5.0 (Windows NT 10.0; Win64; x64) AppleWebKit/537.36 (KHTML, like Gecko) Chrome/102.0.5005.63 Safari/537.36" etag="xGzb9wf5owNh9zibVdy5" version="19.0.2" type="github">
  <diagram id="LLbi4AYxsJjURUIZVEAO" name="Page-1">
    <mxGraphModel dx="1313" dy="794" grid="1" gridSize="10" guides="1" tooltips="1" connect="1" arrows="1" fold="1" page="1" pageScale="1" pageWidth="850" pageHeight="1100" math="0" shadow="0">
      <root>
        <mxCell id="0" />
        <mxCell id="1" parent="0" />
        <mxCell id="f_g6fSq3ne2rUfsvG3fg-3" value="" style="verticalLabelPosition=bottom;verticalAlign=top;html=1;shape=mxgraph.basic.frame;dx=10;direction=south;" vertex="1" parent="1">
          <mxGeometry x="260" y="270" width="90" height="180" as="geometry" />
        </mxCell>
        <mxCell id="f_g6fSq3ne2rUfsvG3fg-9" value="" style="endArrow=none;html=1;rounded=0;" edge="1" parent="f_g6fSq3ne2rUfsvG3fg-3">
          <mxGeometry width="50" height="50" relative="1" as="geometry">
            <mxPoint x="10" y="120" as="sourcePoint" />
            <mxPoint x="80" y="120" as="targetPoint" />
          </mxGeometry>
        </mxCell>
        <mxCell id="f_g6fSq3ne2rUfsvG3fg-10" value="" style="endArrow=none;html=1;rounded=0;" edge="1" parent="f_g6fSq3ne2rUfsvG3fg-3">
          <mxGeometry width="50" height="50" relative="1" as="geometry">
            <mxPoint x="10" y="150" as="sourcePoint" />
            <mxPoint x="80" y="150" as="targetPoint" />
          </mxGeometry>
        </mxCell>
        <mxCell id="f_g6fSq3ne2rUfsvG3fg-6" value="" style="endArrow=none;html=1;rounded=0;" edge="1" parent="f_g6fSq3ne2rUfsvG3fg-3">
          <mxGeometry width="50" height="50" relative="1" as="geometry">
            <mxPoint x="11" y="61" as="sourcePoint" />
            <mxPoint x="80" y="61" as="targetPoint" />
          </mxGeometry>
        </mxCell>
        <mxCell id="f_g6fSq3ne2rUfsvG3fg-7" value="" style="endArrow=none;html=1;rounded=0;exitX=0.2;exitY=0.889;exitDx=0;exitDy=0;exitPerimeter=0;" edge="1" parent="1" source="f_g6fSq3ne2rUfsvG3fg-3">
          <mxGeometry width="50" height="50" relative="1" as="geometry">
            <mxPoint x="270" y="310" as="sourcePoint" />
            <mxPoint x="340" y="306" as="targetPoint" />
          </mxGeometry>
        </mxCell>
        <mxCell id="f_g6fSq3ne2rUfsvG3fg-8" value="" style="endArrow=none;html=1;rounded=0;" edge="1" parent="1">
          <mxGeometry width="50" height="50" relative="1" as="geometry">
            <mxPoint x="270" y="359.5" as="sourcePoint" />
            <mxPoint x="340" y="359.5" as="targetPoint" />
          </mxGeometry>
        </mxCell>
        <mxCell id="f_g6fSq3ne2rUfsvG3fg-11" value="" style="endArrow=none;html=1;rounded=0;entryX=0;entryY=0.5;entryDx=10;entryDy=0;entryPerimeter=0;exitX=1;exitY=0.5;exitDx=-10;exitDy=0;exitPerimeter=0;" edge="1" parent="1" source="f_g6fSq3ne2rUfsvG3fg-3" target="f_g6fSq3ne2rUfsvG3fg-3">
          <mxGeometry width="50" height="50" relative="1" as="geometry">
            <mxPoint x="270" y="530" as="sourcePoint" />
            <mxPoint x="320" y="480" as="targetPoint" />
          </mxGeometry>
        </mxCell>
        <mxCell id="f_g6fSq3ne2rUfsvG3fg-12" value="" style="shape=table;startSize=0;container=1;collapsible=0;childLayout=tableLayout;" vertex="1" parent="1">
          <mxGeometry x="120" y="280" width="80" height="160" as="geometry" />
        </mxCell>
        <mxCell id="f_g6fSq3ne2rUfsvG3fg-13" value="" style="shape=tableRow;horizontal=0;startSize=0;swimlaneHead=0;swimlaneBody=0;top=0;left=0;bottom=0;right=0;collapsible=0;dropTarget=0;fillColor=none;points=[[0,0.5],[1,0.5]];portConstraint=eastwest;" vertex="1" parent="f_g6fSq3ne2rUfsvG3fg-12">
          <mxGeometry width="80" height="40" as="geometry" />
        </mxCell>
        <mxCell id="f_g6fSq3ne2rUfsvG3fg-14" value="" style="shape=partialRectangle;html=1;whiteSpace=wrap;connectable=0;overflow=hidden;fillColor=none;top=0;left=0;bottom=0;right=0;pointerEvents=1;" vertex="1" parent="f_g6fSq3ne2rUfsvG3fg-13">
          <mxGeometry width="40" height="40" as="geometry">
            <mxRectangle width="40" height="40" as="alternateBounds" />
          </mxGeometry>
        </mxCell>
        <mxCell id="f_g6fSq3ne2rUfsvG3fg-15" value="" style="shape=partialRectangle;html=1;whiteSpace=wrap;connectable=0;overflow=hidden;fillColor=none;top=0;left=0;bottom=0;right=0;pointerEvents=1;" vertex="1" parent="f_g6fSq3ne2rUfsvG3fg-13">
          <mxGeometry x="40" width="40" height="40" as="geometry">
            <mxRectangle width="40" height="40" as="alternateBounds" />
          </mxGeometry>
        </mxCell>
        <mxCell id="f_g6fSq3ne2rUfsvG3fg-16" value="" style="shape=tableRow;horizontal=0;startSize=0;swimlaneHead=0;swimlaneBody=0;top=0;left=0;bottom=0;right=0;collapsible=0;dropTarget=0;fillColor=none;points=[[0,0.5],[1,0.5]];portConstraint=eastwest;" vertex="1" parent="f_g6fSq3ne2rUfsvG3fg-12">
          <mxGeometry y="40" width="80" height="40" as="geometry" />
        </mxCell>
        <mxCell id="f_g6fSq3ne2rUfsvG3fg-17" value="" style="shape=partialRectangle;html=1;whiteSpace=wrap;connectable=0;overflow=hidden;fillColor=none;top=0;left=0;bottom=0;right=0;pointerEvents=1;" vertex="1" parent="f_g6fSq3ne2rUfsvG3fg-16">
          <mxGeometry width="40" height="40" as="geometry">
            <mxRectangle width="40" height="40" as="alternateBounds" />
          </mxGeometry>
        </mxCell>
        <mxCell id="f_g6fSq3ne2rUfsvG3fg-18" value="" style="shape=partialRectangle;html=1;whiteSpace=wrap;connectable=0;overflow=hidden;fillColor=none;top=0;left=0;bottom=0;right=0;pointerEvents=1;" vertex="1" parent="f_g6fSq3ne2rUfsvG3fg-16">
          <mxGeometry x="40" width="40" height="40" as="geometry">
            <mxRectangle width="40" height="40" as="alternateBounds" />
          </mxGeometry>
        </mxCell>
        <mxCell id="f_g6fSq3ne2rUfsvG3fg-19" value="" style="shape=tableRow;horizontal=0;startSize=0;swimlaneHead=0;swimlaneBody=0;top=0;left=0;bottom=0;right=0;collapsible=0;dropTarget=0;fillColor=none;points=[[0,0.5],[1,0.5]];portConstraint=eastwest;" vertex="1" parent="f_g6fSq3ne2rUfsvG3fg-12">
          <mxGeometry y="80" width="80" height="40" as="geometry" />
        </mxCell>
        <mxCell id="f_g6fSq3ne2rUfsvG3fg-20" value="" style="shape=partialRectangle;html=1;whiteSpace=wrap;connectable=0;overflow=hidden;fillColor=none;top=0;left=0;bottom=0;right=0;pointerEvents=1;" vertex="1" parent="f_g6fSq3ne2rUfsvG3fg-19">
          <mxGeometry width="40" height="40" as="geometry">
            <mxRectangle width="40" height="40" as="alternateBounds" />
          </mxGeometry>
        </mxCell>
        <mxCell id="f_g6fSq3ne2rUfsvG3fg-21" value="" style="shape=partialRectangle;html=1;whiteSpace=wrap;connectable=0;overflow=hidden;fillColor=none;top=0;left=0;bottom=0;right=0;pointerEvents=1;" vertex="1" parent="f_g6fSq3ne2rUfsvG3fg-19">
          <mxGeometry x="40" width="40" height="40" as="geometry">
            <mxRectangle width="40" height="40" as="alternateBounds" />
          </mxGeometry>
        </mxCell>
        <mxCell id="f_g6fSq3ne2rUfsvG3fg-22" value="" style="shape=tableRow;horizontal=0;startSize=0;swimlaneHead=0;swimlaneBody=0;top=0;left=0;bottom=0;right=0;collapsible=0;dropTarget=0;fillColor=none;points=[[0,0.5],[1,0.5]];portConstraint=eastwest;" vertex="1" parent="f_g6fSq3ne2rUfsvG3fg-12">
          <mxGeometry y="120" width="80" height="40" as="geometry" />
        </mxCell>
        <mxCell id="f_g6fSq3ne2rUfsvG3fg-23" value="" style="shape=partialRectangle;html=1;whiteSpace=wrap;connectable=0;overflow=hidden;fillColor=none;top=0;left=0;bottom=0;right=0;pointerEvents=1;" vertex="1" parent="f_g6fSq3ne2rUfsvG3fg-22">
          <mxGeometry width="40" height="40" as="geometry">
            <mxRectangle width="40" height="40" as="alternateBounds" />
          </mxGeometry>
        </mxCell>
        <mxCell id="f_g6fSq3ne2rUfsvG3fg-24" value="" style="shape=partialRectangle;html=1;whiteSpace=wrap;connectable=0;overflow=hidden;fillColor=none;top=0;left=0;bottom=0;right=0;pointerEvents=1;" vertex="1" parent="f_g6fSq3ne2rUfsvG3fg-22">
          <mxGeometry x="40" width="40" height="40" as="geometry">
            <mxRectangle width="40" height="40" as="alternateBounds" />
          </mxGeometry>
        </mxCell>
        <mxCell id="f_g6fSq3ne2rUfsvG3fg-26" value="" style="verticalLabelPosition=bottom;verticalAlign=top;html=1;shape=mxgraph.basic.patternFillRect;fillStyle=diag;step=5;fillStrokeWidth=0.2;fillStrokeColor=#dddddd;fillColor=none;" vertex="1" parent="1">
          <mxGeometry x="400" y="320" width="80" height="120" as="geometry" />
        </mxCell>
        <mxCell id="f_g6fSq3ne2rUfsvG3fg-27" value="" style="rounded=0;whiteSpace=wrap;html=1;fillColor=none;" vertex="1" parent="1">
          <mxGeometry x="110" y="270" width="100" height="180" as="geometry" />
        </mxCell>
        <mxCell id="f_g6fSq3ne2rUfsvG3fg-30" value="" style="endArrow=none;html=1;rounded=0;exitX=0.5;exitY=1;exitDx=0;exitDy=0;exitPerimeter=0;entryX=0.5;entryY=0;entryDx=0;entryDy=0;entryPerimeter=0;" edge="1" parent="1" source="f_g6fSq3ne2rUfsvG3fg-26" target="f_g6fSq3ne2rUfsvG3fg-26">
          <mxGeometry width="50" height="50" relative="1" as="geometry">
            <mxPoint x="350" y="620" as="sourcePoint" />
            <mxPoint x="440" y="310" as="targetPoint" />
          </mxGeometry>
        </mxCell>
        <mxCell id="f_g6fSq3ne2rUfsvG3fg-33" value="" style="endArrow=none;html=1;rounded=0;entryX=1;entryY=0.342;entryDx=0;entryDy=0;entryPerimeter=0;exitX=0;exitY=0.342;exitDx=0;exitDy=0;exitPerimeter=0;" edge="1" parent="1" source="f_g6fSq3ne2rUfsvG3fg-26" target="f_g6fSq3ne2rUfsvG3fg-26">
          <mxGeometry width="50" height="50" relative="1" as="geometry">
            <mxPoint x="350" y="620" as="sourcePoint" />
            <mxPoint x="400" y="570" as="targetPoint" />
          </mxGeometry>
        </mxCell>
        <mxCell id="f_g6fSq3ne2rUfsvG3fg-34" value="" style="endArrow=none;html=1;rounded=0;entryX=0.988;entryY=0.675;entryDx=0;entryDy=0;entryPerimeter=0;exitX=0.025;exitY=0.675;exitDx=0;exitDy=0;exitPerimeter=0;" edge="1" parent="1" source="f_g6fSq3ne2rUfsvG3fg-26" target="f_g6fSq3ne2rUfsvG3fg-26">
          <mxGeometry width="50" height="50" relative="1" as="geometry">
            <mxPoint x="350" y="620" as="sourcePoint" />
            <mxPoint x="400" y="570" as="targetPoint" />
          </mxGeometry>
        </mxCell>
      </root>
    </mxGraphModel>
  </diagram>
</mxfile>
